<?xml version="1.0" encoding="utf-8"?><!-- Uploaded to: SVG Repo, www.svgrepo.com, Generator: SVG Repo Mixer Tools -->
<svg width="800px" height="800px" viewBox="0 0 24 24" fill="none" xmlns="http://www.w3.org/2000/svg">
<path fill-rule="evenodd" clip-rule="evenodd" d="M8 2C8.55228 2 9 2.44772 9 3H15C15 2.44772 15.4477 2 16 2C16.5523 2 17 2.44772 17 3C19.7614 3 22 5.23858 22 8V17C22 19.7614 19.7614 22 17 22H7C4.23858 22 2 19.7614 2 17V8C2 5.23858 4.23858 3 7 3C7 2.44772 7.44772 2 8 2ZM6 10C6 9.44772 6.44772 9 7 9H17C17.5523 9 18 9.44772 18 10C18 10.5523 17.5523 11 17 11H7C6.44772 11 6 10.5523 6 10ZM15 17C15 16.4477 15.4477 16 16 16H17C17.5523 16 18 16.4477 18 17C18 17.5523 17.5523 18 17 18H16C15.4477 18 15 17.5523 15 17Z" fill="#000000"/>
</svg>